solid _865a46ee-2fb1-47ea-ba98-d340bbb07d07
facet normal 0 -1 0
 outer loop
  vertex 15.77665 -20.43563 11.44166
  vertex 15.77665 -20.43563 0
  vertex 23.15839 -20.43563 0
 endloop
endfacet
facet normal 1 0 0
 outer loop
  vertex 23.15839 -20.43563 11.44166
  vertex 23.15839 -20.43563 0
  vertex 23.15839 -0.4557342 0
 endloop
endfacet
facet normal 0 1 0
 outer loop
  vertex 23.15839 -0.4557342 11.44166
  vertex 23.15839 -0.4557342 0
  vertex 15.77665 -0.4557342 0
 endloop
endfacet
facet normal -1 0 0
 outer loop
  vertex 15.77665 -0.4557342 11.44166
  vertex 15.77665 -0.4557342 0
  vertex 15.77665 -20.43563 0
 endloop
endfacet
facet normal 0 0 -1
 outer loop
  vertex 15.77665 -0.4557342 0
  vertex 23.15839 -0.4557342 0
  vertex 23.15839 -20.43563 0
 endloop
endfacet
facet normal 0 0 1
 outer loop
  vertex 15.77665 -0.4557342 11.44166
  vertex 15.77665 -20.43563 11.44166
  vertex 23.15839 -20.43563 11.44166
 endloop
endfacet
facet normal 0 -1 0
 outer loop
  vertex 15.77665 -20.43563 11.44166
  vertex 23.15839 -20.43563 0
  vertex 23.15839 -20.43563 11.44166
 endloop
endfacet
facet normal 1 0 0
 outer loop
  vertex 23.15839 -20.43563 11.44166
  vertex 23.15839 -0.4557342 0
  vertex 23.15839 -0.4557342 11.44166
 endloop
endfacet
facet normal 0 1 0
 outer loop
  vertex 23.15839 -0.4557342 11.44166
  vertex 15.77665 -0.4557342 0
  vertex 15.77665 -0.4557342 11.44166
 endloop
endfacet
facet normal -1 0 0
 outer loop
  vertex 15.77665 -0.4557342 11.44166
  vertex 15.77665 -20.43563 0
  vertex 15.77665 -20.43563 11.44166
 endloop
endfacet
facet normal 0 0 -1
 outer loop
  vertex 15.77665 -0.4557342 0
  vertex 23.15839 -20.43563 0
  vertex 15.77665 -20.43563 0
 endloop
endfacet
facet normal 0 0 1
 outer loop
  vertex 15.77665 -0.4557342 11.44166
  vertex 23.15839 -20.43563 11.44166
  vertex 23.15839 -0.4557342 11.44166
 endloop
endfacet
endsolid
solid _29ceb925-bb98-4c8c-81c9-6af4f539bceb
facet normal 0 -1 0
 outer loop
  vertex 0.028953 0.03638145 9.450671
  vertex 0.028953 0.03638145 0
  vertex 9.575997 0.03638145 0
 endloop
endfacet
facet normal 1 0 0
 outer loop
  vertex 9.575997 0.03638145 9.450671
  vertex 9.575997 0.03638145 0
  vertex 9.575997 9.09131 0
 endloop
endfacet
facet normal 0 1 0
 outer loop
  vertex 9.575997 9.09131 9.450671
  vertex 9.575997 9.09131 0
  vertex 0.028953 9.09131 0
 endloop
endfacet
facet normal -1 0 0
 outer loop
  vertex 0.028953 9.09131 9.450671
  vertex 0.028953 9.09131 0
  vertex 0.028953 0.03638145 0
 endloop
endfacet
facet normal 0 0 -1
 outer loop
  vertex 0.028953 9.09131 0
  vertex 9.575997 9.09131 0
  vertex 9.575997 0.03638145 0
 endloop
endfacet
facet normal 0 0 1
 outer loop
  vertex 0.028953 9.09131 9.450671
  vertex 0.028953 0.03638145 9.450671
  vertex 9.575997 0.03638145 9.450671
 endloop
endfacet
facet normal 0 -1 0
 outer loop
  vertex 0.028953 0.03638145 9.450671
  vertex 9.575997 0.03638145 0
  vertex 9.575997 0.03638145 9.450671
 endloop
endfacet
facet normal 1 0 0
 outer loop
  vertex 9.575997 0.03638145 9.450671
  vertex 9.575997 9.09131 0
  vertex 9.575997 9.09131 9.450671
 endloop
endfacet
facet normal 0 1 0
 outer loop
  vertex 9.575997 9.09131 9.450671
  vertex 0.028953 9.09131 0
  vertex 0.028953 9.09131 9.450671
 endloop
endfacet
facet normal -1 0 0
 outer loop
  vertex 0.028953 9.09131 9.450671
  vertex 0.028953 0.03638145 0
  vertex 0.028953 0.03638145 9.450671
 endloop
endfacet
facet normal 0 0 -1
 outer loop
  vertex 0.028953 9.09131 0
  vertex 9.575997 0.03638145 0
  vertex 0.028953 0.03638145 0
 endloop
endfacet
facet normal 0 0 1
 outer loop
  vertex 0.028953 9.09131 9.450671
  vertex 9.575997 0.03638145 9.450671
  vertex 9.575997 9.09131 9.450671
 endloop
endfacet
endsolid
solid _7ba22566-cd83-48ed-afdb-b24808f2d058
facet normal 0 -1 0
 outer loop
  vertex -13.55344 10.17396 11.62268
  vertex -13.55344 10.17396 0
  vertex -4.793781 10.17396 0
 endloop
endfacet
facet normal 1 0 0
 outer loop
  vertex -4.793781 10.17396 11.62268
  vertex -4.793781 10.17396 0
  vertex -4.793781 18.53993 0
 endloop
endfacet
facet normal 0 1 0
 outer loop
  vertex -4.793781 18.53993 11.62268
  vertex -4.793781 18.53993 0
  vertex -13.55344 18.53993 0
 endloop
endfacet
facet normal -1 0 0
 outer loop
  vertex -13.55344 18.53993 11.62268
  vertex -13.55344 18.53993 0
  vertex -13.55344 10.17396 0
 endloop
endfacet
facet normal 0 0 -1
 outer loop
  vertex -13.55344 18.53993 0
  vertex -4.793781 18.53993 0
  vertex -4.793781 10.17396 0
 endloop
endfacet
facet normal 0 0 1
 outer loop
  vertex -13.55344 18.53993 11.62268
  vertex -13.55344 10.17396 11.62268
  vertex -4.793781 10.17396 11.62268
 endloop
endfacet
facet normal 0 -1 0
 outer loop
  vertex -13.55344 10.17396 11.62268
  vertex -4.793781 10.17396 0
  vertex -4.793781 10.17396 11.62268
 endloop
endfacet
facet normal 1 0 0
 outer loop
  vertex -4.793781 10.17396 11.62268
  vertex -4.793781 18.53993 0
  vertex -4.793781 18.53993 11.62268
 endloop
endfacet
facet normal 0 1 0
 outer loop
  vertex -4.793781 18.53993 11.62268
  vertex -13.55344 18.53993 0
  vertex -13.55344 18.53993 11.62268
 endloop
endfacet
facet normal -1 0 0
 outer loop
  vertex -13.55344 18.53993 11.62268
  vertex -13.55344 10.17396 0
  vertex -13.55344 10.17396 11.62268
 endloop
endfacet
facet normal 0 0 -1
 outer loop
  vertex -13.55344 18.53993 0
  vertex -4.793781 10.17396 0
  vertex -13.55344 10.17396 0
 endloop
endfacet
facet normal 0 0 1
 outer loop
  vertex -13.55344 18.53993 11.62268
  vertex -4.793781 10.17396 11.62268
  vertex -4.793781 18.53993 11.62268
 endloop
endfacet
endsolid
solid _3d44c03a-88b0-45cc-a09c-3ebde502a6e3
facet normal 0 -1 0
 outer loop
  vertex 7.115418 14.20931 11.95426
  vertex 7.115418 14.20931 0
  vertex 22.86312 14.20931 0
 endloop
endfacet
facet normal 1 0 0
 outer loop
  vertex 22.86312 14.20931 11.95426
  vertex 22.86312 14.20931 0
  vertex 22.86312 21.00051 0
 endloop
endfacet
facet normal 0 1 0
 outer loop
  vertex 22.86312 21.00051 11.95426
  vertex 22.86312 21.00051 0
  vertex 7.115418 21.00051 0
 endloop
endfacet
facet normal -1 0 0
 outer loop
  vertex 7.115418 21.00051 11.95426
  vertex 7.115418 21.00051 0
  vertex 7.115418 14.20931 0
 endloop
endfacet
facet normal 0 0 -1
 outer loop
  vertex 7.115418 21.00051 0
  vertex 22.86312 21.00051 0
  vertex 22.86312 14.20931 0
 endloop
endfacet
facet normal 0 0 1
 outer loop
  vertex 7.115418 21.00051 11.95426
  vertex 7.115418 14.20931 11.95426
  vertex 22.86312 14.20931 11.95426
 endloop
endfacet
facet normal 0 -1 0
 outer loop
  vertex 7.115418 14.20931 11.95426
  vertex 22.86312 14.20931 0
  vertex 22.86312 14.20931 11.95426
 endloop
endfacet
facet normal 1 0 0
 outer loop
  vertex 22.86312 14.20931 11.95426
  vertex 22.86312 21.00051 0
  vertex 22.86312 21.00051 11.95426
 endloop
endfacet
facet normal 0 1 0
 outer loop
  vertex 22.86312 21.00051 11.95426
  vertex 7.115418 21.00051 0
  vertex 7.115418 21.00051 11.95426
 endloop
endfacet
facet normal -1 0 0
 outer loop
  vertex 7.115418 21.00051 11.95426
  vertex 7.115418 14.20931 0
  vertex 7.115418 14.20931 11.95426
 endloop
endfacet
facet normal 0 0 -1
 outer loop
  vertex 7.115418 21.00051 0
  vertex 22.86312 14.20931 0
  vertex 7.115418 14.20931 0
 endloop
endfacet
facet normal 0 0 1
 outer loop
  vertex 7.115418 21.00051 11.95426
  vertex 22.86312 14.20931 11.95426
  vertex 22.86312 21.00051 11.95426
 endloop
endfacet
endsolid
solid _269c2d39-4173-45a4-8f97-a21f3917d174
facet normal 0 -1 0
 outer loop
  vertex -18.57302 -16.4987 9.498725
  vertex -18.57302 -16.4987 0
  vertex 3.769032 -16.4987 0
 endloop
endfacet
facet normal 1 0 0
 outer loop
  vertex 3.769032 -16.4987 9.498725
  vertex 3.769032 -16.4987 0
  vertex 3.769032 -8.329585 0
 endloop
endfacet
facet normal 0 1 0
 outer loop
  vertex 3.769032 -8.329585 9.498725
  vertex 3.769032 -8.329585 0
  vertex -18.57302 -8.329585 0
 endloop
endfacet
facet normal -1 0 0
 outer loop
  vertex -18.57302 -8.329585 9.498725
  vertex -18.57302 -8.329585 0
  vertex -18.57302 -16.4987 0
 endloop
endfacet
facet normal 0 0 -1
 outer loop
  vertex -18.57302 -8.329585 0
  vertex 3.769032 -8.329585 0
  vertex 3.769032 -16.4987 0
 endloop
endfacet
facet normal 0 0 1
 outer loop
  vertex -18.57302 -8.329585 9.498725
  vertex -18.57302 -16.4987 9.498725
  vertex 3.769032 -16.4987 9.498725
 endloop
endfacet
facet normal 0 -1 0
 outer loop
  vertex -18.57302 -16.4987 9.498725
  vertex 3.769032 -16.4987 0
  vertex 3.769032 -16.4987 9.498725
 endloop
endfacet
facet normal 1 0 0
 outer loop
  vertex 3.769032 -16.4987 9.498725
  vertex 3.769032 -8.329585 0
  vertex 3.769032 -8.329585 9.498725
 endloop
endfacet
facet normal 0 1 0
 outer loop
  vertex 3.769032 -8.329585 9.498725
  vertex -18.57302 -8.329585 0
  vertex -18.57302 -8.329585 9.498725
 endloop
endfacet
facet normal -1 0 0
 outer loop
  vertex -18.57302 -8.329585 9.498725
  vertex -18.57302 -16.4987 0
  vertex -18.57302 -16.4987 9.498725
 endloop
endfacet
facet normal 0 0 -1
 outer loop
  vertex -18.57302 -8.329585 0
  vertex 3.769032 -16.4987 0
  vertex -18.57302 -16.4987 0
 endloop
endfacet
facet normal 0 0 1
 outer loop
  vertex -18.57302 -8.329585 9.498725
  vertex 3.769032 -16.4987 9.498725
  vertex 3.769032 -8.329585 9.498725
 endloop
endfacet
endsolid
