solid heatZone.__0
facet normal -1 0 0
 outer loop
  vertex 0 34.5 1
  vertex 0 34.5 0.3
  vertex 0 0.5 0.3
 endloop
endfacet
facet normal 0 -1 0
 outer loop
  vertex 0 0.5 1
  vertex 0 0.5 0.3
  vertex 12 0.5 0.3
 endloop
endfacet
facet normal 1 0 0
 outer loop
  vertex 12 0.5 1
  vertex 12 0.5 0.3
  vertex 12 34.5 0.3
 endloop
endfacet
facet normal 0 1 0
 outer loop
  vertex 12 34.5 1
  vertex 12 34.5 0.3
  vertex 0 34.5 0.3
 endloop
endfacet
facet normal 0 0 -1
 outer loop
  vertex 0 34.5 0.3
  vertex 12 34.5 0.3
  vertex 12 0.5 0.3
 endloop
endfacet
facet normal 0 0 1
 outer loop
  vertex 0 34.5 1
  vertex 0 0.5 1
  vertex 12 0.5 1
 endloop
endfacet
facet normal -1 0 0
 outer loop
  vertex 0 34.5 1
  vertex 0 0.5 0.3
  vertex 0 0.5 1
 endloop
endfacet
facet normal 0 -1 0
 outer loop
  vertex 0 0.5 1
  vertex 12 0.5 0.3
  vertex 12 0.5 1
 endloop
endfacet
facet normal 1 0 0
 outer loop
  vertex 12 0.5 1
  vertex 12 34.5 0.3
  vertex 12 34.5 1
 endloop
endfacet
facet normal 0 1 0
 outer loop
  vertex 12 34.5 1
  vertex 0 34.5 0.3
  vertex 0 34.5 1
 endloop
endfacet
facet normal 0 0 -1
 outer loop
  vertex 0 34.5 0.3
  vertex 12 0.5 0.3
  vertex 0 0.5 0.3
 endloop
endfacet
facet normal 0 0 1
 outer loop
  vertex 0 34.5 1
  vertex 12 0.5 1
  vertex 12 34.5 1
 endloop
endfacet
endsolid
